LG_Sit_Stand_Walk08																		
version=1																		
nRows=88																		
nColumns=19																		
inDegrees=yes																		
endheader																		
time	ground_force2_vx	ground_force2_vy	ground_force2_vz	ground_force2_px	ground_force2_py	ground_force2_pz	ground_torque2_x	ground_torque2_y	ground_torque2_z	ground_force1_vx	ground_force1_vy	ground_force1_vz	ground_force1_px	ground_force1_py	ground_force1_pz	ground_torque1_x	ground_torque1_y	ground_torque1_z
2.877	-38.986946	495.912415	-56.712803	0.197229	0	-0.405137	1.30E-05	1.36799	0.00E+00	0	0	0	-0.13	0	0.305	0	0	0
2.878	-38.982613	494.354858	-54.675797	0.197048	0	-0.405412	3.00E-06	1.289617	1.00E-06	0	0	0	-0.13	0	0.305	0	0	0
2.879	-38.982613	493.146362	-54.127403	0.196914	0	-0.405137	1.30E-05	1.233421	1.00E-06	0	0	0	-0.13	0	0.305	0	0	0
2.88	-38.982613	491.781311	-53.030373	0.196914	0	-0.405412	3.00E-06	1.204388	2.00E-06	0	0	0	-0.13	0	0.305	0	0	0
2.881	-38.828358	488.840179	-52.87355	0.196832	0	-0.405597	1.10E-05	1.204388	4.00E-06	0	0	0	-0.13	0	0.305	0	0	0
2.882	-38.746895	488.327942	-51.698273	0.196832	0	-0.405597	2.00E-06	1.165809	4.00E-06	0	0	0	-0.13	0	0.305	0	0	0
2.883	-38.828358	487.29538	-51.07159	0.196769	0	-0.405386	1.10E-05	1.187725	7.00E-06	0	0	0	-0.13	0	0.305	0	0	0
2.884	-38.983334	484.383148	-51.07159	0.196878	0	-0.405133	1.20E-05	1.184533	7.00E-06	0	0	0	-0.13	0	0.305	0	0	0
2.885	-38.983334	484.372742	-50.993057	0.196848	0	-0.405386	1.40E-05	1.187725	7.00E-06	0	0	0	-0.13	0	0.305	0	0	0
2.886	-38.674095	484.197632	-49.896187	0.196848	0	-0.405485	1.50E-05	1.184533	3.00E-06	0	0	0	-0.13	0	0.305	0	0	0
2.887	-38.441269	482.142151	-49.425884	0.196848	0	-0.405485	1.40E-05	1.27218	7.00E-06	0	0	0	-0.13	0	0.305	0	0	0
2.888	-38.441269	482.139038	-49.190933	0.197026	0	-0.405485	1.30E-05	1.127022	3.00E-06	0	0	0	-0.13	0	0.305	0	0	0
2.889	-38.754112	478.877747	-48.250401	0.197089	0	-0.405362	1.30E-05	1.127022	1.00E-06	0	0	0	-0.13	0	0.305	0	0	0
2.89	-38.754112	477.15741	-47.701607	0.197319	0	-0.405362	1.30E-05	1.08731	1.00E-06	0	0	0	-0.13	0	0.305	0	0	0
2.891	-38.44632	476.126373	-47.153336	0.197089	0	-0.405248	9.00E-06	1.08731	4.00E-06	0	0	0	-0.13	0	0.305	0	0	0
2.892	-38.129139	474.91098	-46.683147	0.197088	0	-0.405248	9.00E-06	1.108938	6.00E-06	0	0	0	-0.13	0	0.305	0	0	0
2.893	-38.129139	474.739349	-45.272877	0.196917	0	-0.405248	5.00E-06	1.146308	6.00E-06	0	0	0	-0.13	0	0.305	0	0	0
2.894	-38.129139	473.884155	-44.724243	0.196917	0	-0.405549	6.00E-06	1.108938	6.00E-06	0	0	0	-0.13	0	0.305	0	0	0
2.895	-37.742775	473.186432	-44.567375	0.196917	0	-0.405048	4.00E-06	1.037105	7.00E-06	0	0	0	-0.13	0	0.305	0	0	0
2.896	-37.660591	469.080841	-44.410759	0.197213	0	-0.405048	6.00E-06	1.008458	5.00E-06	0	0	0	-0.13	0	0.305	0	0	0
2.897	-37.660591	469.080841	-43.54884	0.197277	0	-0.404045	8.00E-06	1.008458	5.00E-06	0	0	0	-0.13	0	0.305	0	0	0
2.898	-38.054176	469.080841	-43.470268	0.19731	0	-0.403742	1.10E-05	1.009979	5.00E-06	0	0	0	-0.13	0	0.305	0	0	0
2.899	-38.054176	467.713043	-43.313644	0.197528	0	-0.403742	8.00E-06	1.015991	5.00E-06	0	0	0	-0.13	0	0.305	0	0	0
2.9	-37.664925	467.023041	-43.313644	0.197528	0	-0.403746	1.00E-06	1.064822	7.00E-06	0	0	0	-0.13	0	0.305	0	0	0
2.901	-37.272057	464.082642	-43.313644	0.197528	0	-0.404419	1.00E-06	1.015991	7.00E-06	0	0	0	-0.13	0	0.305	0	0	0
2.902	-37.269894	462.884613	-42.608231	0.197392	0	-0.404446	5.00E-06	0.853438	3.00E-06	0	0	0	-0.13	0	0.305	0	0	0
2.903	-37.272057	462.710266	-42.530022	0.197592	0	-0.404419	1.30E-05	0.853438	3.00E-06	0	0	0	-0.13	0	0.305	0	0	0
2.904	-37.037785	461.507965	-41.981346	0.197654	0	-0.404052	1.50E-05	0.853438	7.00E-06	0	0	0	-0.13	0	0.305	0	0	0
2.905	-36.959209	460.650513	-41.903091	0.197654	0	-0.404052	1.50E-05	0.958031	7.00E-06	0	0	0	-0.13	0	0.305	0	0	0
2.906	-36.807117	459.612122	-41.746353	0.197532	0	-0.404603	8.00E-06	0.762142	5.00E-06	0	0	0	-0.13	0	0.305	0	0	0
2.907	-36.254948	457.887543	-40.962967	0.197127	0	-0.405051	4.00E-06	0.82277	4.00E-06	0	0	0	-0.13	0	0.305	0	0	0
2.908	-36.254948	455.491852	-40.962967	0.197127	0	-0.405051	4.00E-06	0.798995	4.00E-06	0	0	0	-0.13	0	0.305	0	0	0
2.909	-36.338566	454.787506	-40.806065	0.197127	0	-0.405299	4.00E-06	0.82277	6.00E-06	0	0	0	-0.13	0	0.305	0	0	0
2.91	-36.338566	451.848663	-39.865734	0.197171	0	-0.405698	7.00E-06	0.81308	6.00E-06	0	0	0	-0.13	0	0.305	0	0	0
2.911	-36.107903	451.848663	-39.317345	0.197171	0	-0.405698	7.00E-06	0.87075	6.00E-06	0	0	0	-0.13	0	0.305	0	0	0
2.912	-35.790726	450.138	-39.23893	0.197171	0	-0.404968	2.00E-06	0.81308	3.00E-06	0	0	0	-0.13	0	0.305	0	0	0
2.913	-35.555733	449.787048	-38.925568	0.196722	0	-0.404968	-2.00E-06	0.717608	3.00E-06	0	0	0	-0.13	0	0.305	0	0	0
2.914	-35.090065	447.19574	-38.141663	0.196722	0	-0.405569	2.00E-06	0.717608	2.00E-06	0	0	0	-0.13	0	0.305	0	0	0
2.915	-35.090065	446.85553	-37.985077	0.19698	0	-0.405945	9.00E-06	0.722885	2.00E-06	0	0	0	-0.13	0	0.305	0	0	0
2.916	-35.092232	444.441711	-36.731266	0.19698	0	-0.405945	1.10E-05	0.722885	3.00E-06	0	0	0	-0.13	0	0.305	0	0	0
2.917	-35.092232	443.582703	-36.261284	0.19698	0	-0.405433	9.00E-06	0.751678	4.00E-06	0	0	0	-0.13	0	0.305	0	0	0
2.918	-34.780827	442.388489	-35.477654	0.196953	0	-0.405433	1.10E-05	0.763336	4.00E-06	0	0	0	-0.13	0	0.305	0	0	0
2.919	-34.392292	440.488434	-34.61586	0.196696	0	-0.405473	8.00E-06	0.763336	5.00E-06	0	0	0	-0.13	0	0.305	0	0	0
2.92	-34.002319	437.029663	-33.205265	0.196696	0	-0.406468	1.10E-05	0.74684	5.00E-06	0	0	0	-0.13	0	0.305	0	0	0
2.921	-33.925186	436.511597	-33.048485	0.196705	0	-0.406974	9.00E-06	0.695432	4.00E-06	0	0	0	-0.13	0	0.305	0	0	0
2.922	-33.532326	434.267883	-31.637974	0.197093	0	-0.407378	1.10E-05	0.694639	4.00E-06	0	0	0	-0.13	0	0.305	0	0	0
2.923	-33.925186	431.347565	-30.854424	0.197093	0	-0.407002	1.30E-05	0.694639	2.00E-06	0	0	0	-0.13	0	0.305	0	0	0
2.924	-33.693081	430.828796	-29.914015	0.197095	0	-0.407002	1.30E-05	0.654692	2.00E-06	0	0	0	-0.13	0	0.305	0	0	0
2.925	-33.693081	426.340546	-29.522205	0.197095	0	-0.407002	5.00E-06	0.712865	2.00E-06	0	0	0	-0.13	0	0.305	0	0	0
2.926	-32.835274	426.196289	-28.816868	0.196288	0	-0.407358	5.00E-06	0.712865	2.00E-06	0	0	0	-0.13	0	0.305	0	0	0
2.927	-32.760311	424.443146	-27.485125	0.196212	0	-0.408563	9.00E-06	0.712865	3.00E-06	0	0	0	-0.13	0	0.305	0	0	0
2.928	-32.679573	423.069214	-26.466305	0.196212	0	-0.408563	1.40E-05	0.653522	4.00E-06	0	0	0	-0.13	0	0.305	0	0	0
2.929	-32.524593	423.069214	-25.369396	0.196983	0	-0.408375	9.00E-06	0.653522	5.00E-06	0	0	0	-0.13	0	0.305	0	0	0
2.93	-32.606052	423.069214	-24.664021	0.196983	0	-0.407873	1.00E-05	0.710468	5.00E-06	0	0	0	-0.13	0	0.305	0	0	0
2.931	-32.451073	418.072968	-23.332079	0.196482	0	-0.407872	6.00E-06	0.742959	3.00E-06	0	0	0	-0.13	0	0.305	0	0	0
2.932	-32.296093	418.071045	-23.331837	0.19613	0	-0.407873	1.00E-05	0.742959	3.00E-06	0	0	0	-0.13	0	0.305	0	0	0
2.933	-32.141109	416.174072	-22.391832	0.196099	0	-0.40834	7.00E-06	0.742959	3.00E-06	0	0	0	-0.13	0	0.305	0	0	0
2.934	-31.436846	412.724121	-21.294682	0.196099	0	-0.408414	1.00E-05	0.641138	3.00E-06	0	0	0	-0.13	0	0.305	0	0	0
2.935	-31.436846	412.556732	-21.137939	0.196214	0	-0.408936	7.00E-06	0.641138	0	0	0	0	-0.13	0	0.305	0	0	0
2.936	-31.592548	411.000732	-20.432602	0.196214	0	-0.408976	2.00E-06	0.667542	0.00E+00	0	0	0	-0.13	0	0.305	0	0	0
2.937	-31.592548	407.73642	-19.257561	0.196191	0	-0.408976	2.00E-06	0.667542	5.00E-06	0	0	0	-0.13	0	0.305	0	0	0
2.938	-31.205458	407.226044	-18.709171	0.196056	0	-0.408777	6.00E-06	0.667542	6.00E-06	0	0	0	-0.13	0	0.305	0	0	0
2.939	-30.816204	407.221069	-18.708889	0.195934	0	-0.408766	1.20E-05	0.644992	6.00E-06	0	0	0	-0.13	0	0.305	0	0	0
2.94	-30.816204	402.570831	-17.376747	0.195934	0	-0.408777	1.20E-05	0.638505	2.00E-06	0	0	0	-0.13	0	0.305	0	0	0
2.941	-30.11482	401.888794	-16.985054	0.196116	0	-0.409424	8.00E-06	0.638505	2.00E-06	0	0	0	-0.13	0	0.305	0	0	0
2.942	-30.11482	401.68866	-15.417881	0.196116	0	-0.409424	8.00E-06	0.641908	5.00E-06	0	0	0	-0.13	0	0.305	0	0	0
2.943	-30.823418	400.503723	-15.417881	0.196116	0	-0.408923	6.00E-06	0.676696	5.00E-06	0	0	0	-0.13	0	0.305	0	0	0
2.944	-30.823418	399.128235	-15.496449	0.19603	0	-0.408923	6.00E-06	0.780679	5.00E-06	0	0	0	-0.13	0	0.305	0	0	0
2.945	-30.817644	397.060364	-15.496449	0.196068	0	-0.409362	1.10E-05	0.780679	3.00E-06	0	0	0	-0.13	0	0.305	0	0	0
2.946	-29.493458	394.983276	-13.694126	0.19603	0	-0.409362	1.10E-05	0.671099	3.00E-06	0	0	0	-0.13	0	0.305	0	0	0
2.947	-29.416327	394.827057	-13.694126	0.196019	0	-0.409716	1.20E-05	0.671099	3.00E-06	0	0	0	-0.13	0	0.305	0	0	0
2.948	-29.413441	392.571381	-13.850746	0.195957	0	-0.41008	1.30E-05	0.663016	5.00E-06	0	0	0	-0.13	0	0.305	0	0	0
2.949	-29.25774	392.061859	-13.850746	0.195957	0	-0.41008	1.30E-05	0.663016	2.00E-06	0	0	0	-0.13	0	0.305	0	0	0
2.95	-28.55636	391.887085	-13.302067	0.195957	0	-0.408995	6.00E-06	0.57717	2.00E-06	0	0	0	-0.13	0	0.305	0	0	0
2.951	-28.55636	391.035431	-12.518604	0.195768	0	-0.408995	6.00E-06	0.57717	2.00E-06	0	0	0	-0.13	0	0.305	0	0	0
2.952	-28.55636	387.234131	-12.048458	0.195768	0	-0.409461	6.00E-06	0.706374	2.00E-06	0	0	0	-0.13	0	0.305	0	0	0
2.953	-28.324972	386.552948	-11.813347	0.195714	0	-0.409867	6.00E-06	0.706374	1.00E-06	0	0	0	-0.13	0	0.305	0	0	0
2.954	-28.089975	385.3302	-11.186462	0.195714	0	-0.41055	6.00E-06	0.619954	0	0	0	0	-0.13	0	0.305	0	0	0
2.955	-27.234335	384.650208	-11.029839	0.195714	0	-0.41055	8.00E-06	0.619954	0	0	0	0	-0.13	0	0.305	0	0	0
2.956	-27.234335	384.294556	-10.324463	0.195602	0	-0.409386	8.00E-06	0.587764	2.00E-06	0	0	0	-0.13	0	0.305	0	0	0
2.957	-27.467888	381.214172	-9.61945	0.195602	0	-0.409386	1.00E-05	0.634364	4.00E-06	0	0	0	-0.13	0	0.305	0	0	0
2.958	-27.467888	378.963501	-9.071053	0.19555	0	-0.409752	1.00E-05	0.634364	4.00E-06	0	0	0	-0.13	0	0.305	0	0	0
2.959	-27.31435	378.452423	-8.91415	0.195444	0	-0.410036	1.10E-05	0.731621	4.00E-06	0	0	0	-0.13	0	0.305	0	0	0
2.96	-27.000061	376.371826	-8.522579	0.195403	0	-0.41102	1.10E-05	0.731621	3.00E-06	0	0	0	-0.13	0	0.305	0	0	0
2.961	-26.531511	375.690247	-8.130642	0.195403	0	-0.41102	1.00E-05	0.581693	3.00E-06	0	0	0	-0.13	0	0.305	0	0	0
2.962	-26.531511	374.136139	-7.73875	0.195507	0	-0.411316	5.00E-06	0.581693	3.00E-06	0	0	0	-0.13	0	0.305	0	0	0
2.963	-26.531511	372.240356	-6.955364	0.195579	0	-0.410709	7.00E-06	0.668816	3.00E-06	0	0	0	-0.13	0	0.305	0	0	0
2.964	-26.765789	371.553406	-6.48518	0.195507	0	-0.410709	7.00E-06	0.668816	4.00E-06	0	0	0	-0.13	0	0.305	0	0	0
